# xmcd
#
# Track frame offsets:
#	150
#	2491
#	23539
#	41262
#	53698
#	66659
#	79086
#	101828
#	117136
#	129639
#	142564
#	159446
#	171515
#	182799
#	199387
#	212084
#	229909
#	243153
#	256191
#	279566
#	290905
#
# Disc length: 4037 seconds
#
# Revision: 1
# Processed by: cddbd v1.5.2PL0 Copyright (c) Steve Scherf et al.
# Submitted via: EZCDAudioConverter 9.0.2.1
#
DISCID=290fc315
DTITLE=Gunter Gabriel - Aus Dem Leben Gegriffen
DYEAR=1900
DGENRE=Country and Western
TTITLE0=Intro
TTITLE1=Ehrbares Mädchen
TTITLE2=Komm Charly, Fang Mich Charly
TTITLE3=Ich Lieb' Bier
TTITLE4=Fraulein
TTITLE5=König Der Tramps
TTITLE6=Ich Bin Bei Dir
TTITLE7=Einsamer Weintrinker
TTITLE8=Ruby
TTITLE9=Ho-Ho-Joe
TTITLE10=Jackson  (& Duettsängerin)
TTITLE11=Rocky Top
TTITLE12=Geisternachtexpress
TTITLE13=Tina, Weine Nicht
TTITLE14=500 Meilen Von Zu Haus
TTITLE15=Rheingold-Trans-Europa
TTITLE16=Adios Amigo
TTITLE17=Das Grüne Gras Zu Haus
TTITLE18=Ehrbares Mädchen (Live Version) (Mit Boxcar Willie)
TTITLE19=San Quentin (Live Version)
TTITLE20=Wooden Heart (Muss I Denn Zum Staedtele Hinaus)
EXTD=
EXTT0=
EXTT1=
EXTT2=
EXTT3=
EXTT4=
EXTT5=
EXTT6=
EXTT7=
EXTT8=
EXTT9=
EXTT10=
EXTT11=
EXTT12=
EXTT13=
EXTT14=
EXTT15=
EXTT16=
EXTT17=
EXTT18=
EXTT19=
EXTT20=
PLAYORDER=
